# xmcd
# 
# Track frame offsets:
#     150
#     18487
#     46165
#     67012
# 
# Disc length: 1137
# 
# Revision: 0
# Processed by: cddbd v1.5.2PL0 Copyright (c) Steve Scherf et al.
# Submitted via: fre:ac v1.0.17
# 
DISCID=2e046f04
DTITLE=Elton John - If The River Can Bend
DYEAR=1998
DGENRE=
TTITLE0=If The River Can Bend [edit]
TTITLE1=Don't Let The Sun Go Down On Me [Live]
TTITLE2=I Guess That's Why They Call It The Blues [Live]
TTITLE3=Sorry Seems To Be The Hardest Word [Live]
EXTD=
EXTT0=
EXTT1=
EXTT2=
EXTT3=
PLAYORDER=
